<mxfile host="65bd71144e" modified="2020-11-20T03:40:21.374Z" agent="5.0 (Windows NT 10.0; Win64; x64) AppleWebKit/537.36 (KHTML, like Gecko) Code/1.51.1 Chrome/83.0.4103.122 Electron/9.3.3 Safari/537.36" etag="N5JzFBLRNFBjkTq85vIr" version="13.6.5">
    <diagram id="Ivdfm6YrfReM7bQs2AP5" name="Page-1">
        <mxGraphModel dx="710" dy="219" grid="1" gridSize="10" guides="1" tooltips="1" connect="1" arrows="1" fold="1" page="1" pageScale="1" pageWidth="1100" pageHeight="850" background="#FFFFFF" math="0" shadow="0">
            <root>
                <mxCell id="0"/>
                <mxCell id="1" parent="0"/>
                <mxCell id="15" style="edgeStyle=orthogonalEdgeStyle;orthogonalLoop=1;jettySize=auto;html=1;exitX=1;exitY=0.5;exitDx=0;exitDy=0;entryX=0;entryY=0.5;entryDx=0;entryDy=0;fontSize=36;rounded=0;" parent="1" source="2" target="3" edge="1">
                    <mxGeometry relative="1" as="geometry"/>
                </mxCell>
                <mxCell id="2" value="&lt;div style=&quot;font-size: 36px;&quot;&gt;•&lt;br style=&quot;font-size: 36px;&quot;&gt;&lt;/div&gt;" style="ellipse;whiteSpace=wrap;html=1;fontSize=36;" parent="1" vertex="1">
                    <mxGeometry x="90" y="205" width="30" height="30" as="geometry"/>
                </mxCell>
                <mxCell id="14" style="edgeStyle=orthogonalEdgeStyle;orthogonalLoop=1;jettySize=auto;html=1;exitX=1;exitY=0.5;exitDx=0;exitDy=0;entryX=0;entryY=0.5;entryDx=0;entryDy=0;fontSize=36;rounded=0;" parent="1" source="3" target="11" edge="1">
                    <mxGeometry relative="1" as="geometry"/>
                </mxCell>
                <mxCell id="3" value="" style="whiteSpace=wrap;html=1;fillColor=#fff2cc;strokeColor=#d6b656;" parent="1" vertex="1">
                    <mxGeometry x="150" y="190" width="10" height="60" as="geometry"/>
                </mxCell>
                <mxCell id="19" style="edgeStyle=orthogonalEdgeStyle;orthogonalLoop=1;jettySize=auto;html=1;exitX=1;exitY=0.5;exitDx=0;exitDy=0;entryX=0;entryY=0.5;entryDx=0;entryDy=0;fontSize=36;rounded=0;" parent="1" source="11" target="17" edge="1">
                    <mxGeometry relative="1" as="geometry"/>
                </mxCell>
                <mxCell id="11" value="" style="ellipse;whiteSpace=wrap;html=1;fontSize=36;" parent="1" vertex="1">
                    <mxGeometry x="190" y="205" width="30" height="30" as="geometry"/>
                </mxCell>
                <mxCell id="16" style="edgeStyle=orthogonalEdgeStyle;orthogonalLoop=1;jettySize=auto;html=1;exitX=1;exitY=0.5;exitDx=0;exitDy=0;entryX=0;entryY=0.5;entryDx=0;entryDy=0;fontSize=36;rounded=0;" parent="1" source="17" target="18" edge="1">
                    <mxGeometry relative="1" as="geometry">
                        <Array as="points">
                            <mxPoint x="290" y="220"/>
                            <mxPoint x="290" y="184"/>
                        </Array>
                    </mxGeometry>
                </mxCell>
                <mxCell id="34" style="edgeStyle=orthogonalEdgeStyle;orthogonalLoop=1;jettySize=auto;html=1;exitX=1;exitY=0.5;exitDx=0;exitDy=0;entryX=0;entryY=0.5;entryDx=0;entryDy=0;rounded=0;" parent="1" source="17" target="32" edge="1">
                    <mxGeometry relative="1" as="geometry"/>
                </mxCell>
                <mxCell id="17" value="" style="whiteSpace=wrap;html=1;fillColor=#f8cecc;strokeColor=#b85450;" parent="1" vertex="1">
                    <mxGeometry x="250" y="190" width="10" height="60" as="geometry"/>
                </mxCell>
                <mxCell id="43" style="edgeStyle=orthogonalEdgeStyle;orthogonalLoop=1;jettySize=auto;html=1;exitX=1;exitY=0.5;exitDx=0;exitDy=0;entryX=0;entryY=0.5;entryDx=0;entryDy=0;rounded=0;" parent="1" source="18" target="35" edge="1">
                    <mxGeometry relative="1" as="geometry"/>
                </mxCell>
                <mxCell id="18" value="" style="ellipse;whiteSpace=wrap;html=1;fontSize=36;" parent="1" vertex="1">
                    <mxGeometry x="320" y="168.75" width="30" height="30" as="geometry"/>
                </mxCell>
                <mxCell id="44" style="edgeStyle=orthogonalEdgeStyle;orthogonalLoop=1;jettySize=auto;html=1;exitX=1;exitY=0.5;exitDx=0;exitDy=0;entryX=0;entryY=0.5;entryDx=0;entryDy=0;rounded=0;" parent="1" source="32" target="42" edge="1">
                    <mxGeometry relative="1" as="geometry"/>
                </mxCell>
                <mxCell id="32" value="" style="ellipse;whiteSpace=wrap;html=1;fontSize=36;" parent="1" vertex="1">
                    <mxGeometry x="320" y="241.25" width="30" height="30" as="geometry"/>
                </mxCell>
                <mxCell id="46" style="edgeStyle=orthogonalEdgeStyle;orthogonalLoop=1;jettySize=auto;html=1;exitX=1;exitY=0.5;exitDx=0;exitDy=0;rounded=0;" parent="1" source="35" target="45" edge="1">
                    <mxGeometry relative="1" as="geometry"/>
                </mxCell>
                <mxCell id="35" value="" style="whiteSpace=wrap;html=1;" parent="1" vertex="1">
                    <mxGeometry x="450" y="153.75" width="10" height="60" as="geometry"/>
                </mxCell>
                <mxCell id="47" style="edgeStyle=orthogonalEdgeStyle;orthogonalLoop=1;jettySize=auto;html=1;exitX=1;exitY=0.5;exitDx=0;exitDy=0;rounded=0;" parent="1" source="42" target="45" edge="1">
                    <mxGeometry relative="1" as="geometry">
                        <Array as="points">
                            <mxPoint x="490" y="256"/>
                            <mxPoint x="490" y="220"/>
                        </Array>
                    </mxGeometry>
                </mxCell>
                <mxCell id="42" value="" style="whiteSpace=wrap;html=1;" parent="1" vertex="1">
                    <mxGeometry x="370" y="226.25" width="10" height="60" as="geometry"/>
                </mxCell>
                <mxCell id="86" style="edgeStyle=orthogonalEdgeStyle;rounded=0;orthogonalLoop=1;jettySize=auto;html=1;exitX=1;exitY=0.5;exitDx=0;exitDy=0;entryX=0;entryY=0.5;entryDx=0;entryDy=0;fontSize=12;" parent="1" source="45" target="83" edge="1">
                    <mxGeometry relative="1" as="geometry"/>
                </mxCell>
                <mxCell id="45" value="○○" style="ellipse;whiteSpace=wrap;html=1;verticalAlign=top;" parent="1" vertex="1">
                    <mxGeometry x="520" y="205" width="30" height="30" as="geometry"/>
                </mxCell>
                <mxCell id="55" value="p0" style="text;html=1;strokeColor=none;fillColor=none;align=center;verticalAlign=middle;whiteSpace=wrap;rounded=0;fontSize=12;" parent="1" vertex="1">
                    <mxGeometry x="95" y="235" width="20" height="20" as="geometry"/>
                </mxCell>
                <mxCell id="56" value="t2" style="text;html=1;align=center;verticalAlign=middle;resizable=0;points=[];autosize=1;fontSize=12;" parent="1" vertex="1">
                    <mxGeometry x="360" y="286.25" width="30" height="20" as="geometry"/>
                </mxCell>
                <mxCell id="65" value="t0" style="text;html=1;align=center;verticalAlign=middle;resizable=0;points=[];autosize=1;fontSize=12;" parent="1" vertex="1">
                    <mxGeometry x="140" y="251.25" width="30" height="20" as="geometry"/>
                </mxCell>
                <mxCell id="66" value="p1" style="text;html=1;strokeColor=none;fillColor=none;align=center;verticalAlign=middle;whiteSpace=wrap;rounded=0;fontSize=12;" parent="1" vertex="1">
                    <mxGeometry x="195" y="235" width="20" height="20" as="geometry"/>
                </mxCell>
                <mxCell id="67" value="p2" style="text;html=1;strokeColor=none;fillColor=none;align=center;verticalAlign=middle;whiteSpace=wrap;rounded=0;fontSize=12;" parent="1" vertex="1">
                    <mxGeometry x="325" y="199" width="20" height="20" as="geometry"/>
                </mxCell>
                <mxCell id="68" value="p3" style="text;html=1;strokeColor=none;fillColor=none;align=center;verticalAlign=middle;whiteSpace=wrap;rounded=0;fontSize=12;" parent="1" vertex="1">
                    <mxGeometry x="325" y="271" width="20" height="20" as="geometry"/>
                </mxCell>
                <mxCell id="69" value="p4" style="text;html=1;strokeColor=none;fillColor=none;align=center;verticalAlign=middle;whiteSpace=wrap;rounded=0;fontSize=12;" parent="1" vertex="1">
                    <mxGeometry x="525" y="235" width="20" height="20" as="geometry"/>
                </mxCell>
                <mxCell id="70" value="t1" style="text;html=1;align=center;verticalAlign=middle;resizable=0;points=[];autosize=1;fontSize=12;" parent="1" vertex="1">
                    <mxGeometry x="240" y="250" width="30" height="20" as="geometry"/>
                </mxCell>
                <mxCell id="71" value="t3" style="text;html=1;align=center;verticalAlign=middle;resizable=0;points=[];autosize=1;fontSize=12;" parent="1" vertex="1">
                    <mxGeometry x="440" y="213.75" width="30" height="20" as="geometry"/>
                </mxCell>
                <mxCell id="87" style="edgeStyle=orthogonalEdgeStyle;rounded=0;orthogonalLoop=1;jettySize=auto;html=1;exitX=1;exitY=0.5;exitDx=0;exitDy=0;entryX=0;entryY=0.5;entryDx=0;entryDy=0;fontSize=12;" parent="1" source="83" target="2" edge="1">
                    <mxGeometry relative="1" as="geometry">
                        <Array as="points">
                            <mxPoint x="605" y="220"/>
                            <mxPoint x="605" y="340"/>
                            <mxPoint x="70" y="340"/>
                            <mxPoint x="70" y="220"/>
                        </Array>
                    </mxGeometry>
                </mxCell>
                <mxCell id="83" value="" style="whiteSpace=wrap;html=1;strokeColor=#82b366;fontSize=12;fillColor=#d5e8d4;" parent="1" vertex="1">
                    <mxGeometry x="575" y="190" width="10" height="60" as="geometry"/>
                </mxCell>
                <mxCell id="84" value="t4" style="text;html=1;align=center;verticalAlign=middle;resizable=0;points=[];autosize=1;fontSize=12;" parent="1" vertex="1">
                    <mxGeometry x="565" y="250" width="30" height="20" as="geometry"/>
                </mxCell>
                <mxCell id="88" value="w=35s" style="text;html=1;align=center;verticalAlign=middle;resizable=0;points=[];autosize=1;fontSize=8;" parent="1" vertex="1">
                    <mxGeometry x="135" y="170" width="40" height="20" as="geometry"/>
                </mxCell>
                <mxCell id="90" value="w=6s" style="text;html=1;align=center;verticalAlign=middle;resizable=0;points=[];autosize=1;fontSize=8;fillColor=none;gradientColor=none;" parent="1" vertex="1">
                    <mxGeometry x="240" y="170" width="30" height="20" as="geometry"/>
                </mxCell>
                <mxCell id="91" value="w=3s" style="text;html=1;align=center;verticalAlign=middle;resizable=0;points=[];autosize=1;fontSize=8;fillColor=none;gradientColor=none;" parent="1" vertex="1">
                    <mxGeometry x="565" y="169" width="30" height="20" as="geometry"/>
                </mxCell>
                <mxCell id="93" value="" style="endArrow=none;html=1;fontSize=8;strokeWidth=5;fillColor=#fff2cc;strokeColor=#d6b656;" parent="1" edge="1">
                    <mxGeometry width="50" height="50" relative="1" as="geometry">
                        <mxPoint x="150" y="110" as="sourcePoint"/>
                        <mxPoint x="250" y="110" as="targetPoint"/>
                    </mxGeometry>
                </mxCell>
                <mxCell id="94" value="6s" style="edgeLabel;html=1;align=center;verticalAlign=middle;resizable=0;points=[];fontSize=8;" parent="93" vertex="1" connectable="0">
                    <mxGeometry x="-0.1259" y="2" relative="1" as="geometry">
                        <mxPoint x="5.48" y="-8" as="offset"/>
                    </mxGeometry>
                </mxCell>
                <mxCell id="95" value="" style="endArrow=none;html=1;fontSize=8;strokeWidth=5;fillColor=#f8cecc;strokeColor=#b85450;" parent="1" edge="1">
                    <mxGeometry width="50" height="50" relative="1" as="geometry">
                        <mxPoint x="250" y="110" as="sourcePoint"/>
                        <mxPoint x="580" y="110" as="targetPoint"/>
                    </mxGeometry>
                </mxCell>
                <mxCell id="103" value="28s" style="edgeLabel;html=1;align=center;verticalAlign=middle;resizable=0;points=[];fontSize=8;" parent="95" vertex="1" connectable="0">
                    <mxGeometry x="-0.1786" y="2" relative="1" as="geometry">
                        <mxPoint x="24.29" y="-8" as="offset"/>
                    </mxGeometry>
                </mxCell>
                <mxCell id="97" value="" style="endArrow=none;html=1;fontSize=8;strokeWidth=5;fillColor=#d5e8d4;strokeColor=#82b366;" parent="1" edge="1">
                    <mxGeometry width="50" height="50" relative="1" as="geometry">
                        <mxPoint x="575" y="110" as="sourcePoint"/>
                        <mxPoint x="610" y="110" as="targetPoint"/>
                    </mxGeometry>
                </mxCell>
                <mxCell id="98" value="35s ..." style="edgeLabel;html=1;align=center;verticalAlign=middle;resizable=0;points=[];fontSize=8;" parent="97" vertex="1" connectable="0">
                    <mxGeometry x="0.4177" y="-2" relative="1" as="geometry">
                        <mxPoint x="-4.76" y="-12" as="offset"/>
                    </mxGeometry>
                </mxCell>
                <mxCell id="99" value="" style="endArrow=none;html=1;fontSize=8;strokeWidth=5;fillColor=#d5e8d4;strokeColor=#82b366;" parent="1" edge="1">
                    <mxGeometry width="50" height="50" relative="1" as="geometry">
                        <mxPoint x="70" y="110" as="sourcePoint"/>
                        <mxPoint x="150" y="110" as="targetPoint"/>
                    </mxGeometry>
                </mxCell>
                <mxCell id="100" value="... 35s" style="edgeLabel;html=1;align=center;verticalAlign=middle;resizable=0;points=[];fontSize=8;" parent="99" vertex="1" connectable="0">
                    <mxGeometry x="0.1976" y="-2" relative="1" as="geometry">
                        <mxPoint x="-3.1" y="-12" as="offset"/>
                    </mxGeometry>
                </mxCell>
                <mxCell id="101" value="w=25s" style="text;html=1;align=center;verticalAlign=middle;resizable=0;points=[];autosize=1;fontSize=8;fillColor=none;gradientColor=none;" parent="1" vertex="1">
                    <mxGeometry x="435" y="134" width="40" height="20" as="geometry"/>
                </mxCell>
                <mxCell id="102" value="w=15s" style="text;html=1;align=center;verticalAlign=middle;resizable=0;points=[];autosize=1;fontSize=8;fillColor=none;gradientColor=none;" parent="1" vertex="1">
                    <mxGeometry x="355" y="205" width="40" height="20" as="geometry"/>
                </mxCell>
                <mxCell id="105" value="t=36" style="text;html=1;align=center;verticalAlign=middle;resizable=0;points=[];autosize=1;" vertex="1" parent="1">
                    <mxGeometry x="135" y="120" width="40" height="20" as="geometry"/>
                </mxCell>
                <mxCell id="106" value="t=42" style="text;html=1;align=center;verticalAlign=middle;resizable=0;points=[];autosize=1;" vertex="1" parent="1">
                    <mxGeometry x="235" y="120" width="40" height="20" as="geometry"/>
                </mxCell>
                <mxCell id="107" value="t=57" style="text;html=1;align=center;verticalAlign=middle;resizable=0;points=[];autosize=1;" vertex="1" parent="1">
                    <mxGeometry x="355" y="120" width="40" height="20" as="geometry"/>
                </mxCell>
                <mxCell id="108" value="t=67" style="text;html=1;align=center;verticalAlign=middle;resizable=0;points=[];autosize=1;" vertex="1" parent="1">
                    <mxGeometry x="435" y="120" width="40" height="20" as="geometry"/>
                </mxCell>
                <mxCell id="109" value="t=70" style="text;html=1;align=center;verticalAlign=middle;resizable=0;points=[];autosize=1;" vertex="1" parent="1">
                    <mxGeometry x="565" y="120" width="40" height="20" as="geometry"/>
                </mxCell>
            </root>
        </mxGraphModel>
    </diagram>
</mxfile>